<?xml version="1.0" standalone="no"?><!DOCTYPE svg PUBLIC "-//W3C//DTD SVG 1.1//EN" "http://www.w3.org/Graphics/SVG/1.1/DTD/svg11.dtd"><svg t="1704857323500" class="icon" viewBox="0 0 1024 1024" version="1.1" xmlns="http://www.w3.org/2000/svg" p-id="5197" xmlns:xlink="http://www.w3.org/1999/xlink" width="200" height="200"><path d="M849.16992 0C946.57792 0 1024 77.42464 1024 174.83008v674.33984c0 97.408-77.42464 174.83008-174.83008 174.83008H174.83008C77.42208 1024 0 946.57536 0 849.16992V174.83008C0 77.42208 77.42464 0 174.83008 0h674.33984zM706.56 238.08c-21.20704 0-38.4 17.19296-38.4 38.4 0 15.74656 9.47968 29.28128 23.04256 35.20512l0.00768 45.56032A68.79744 68.79744 0 0 0 652.8 345.6H360.96c-14.208 0-27.4176 4.288-38.4 11.64032l0.00512-45.55776c13.55776-5.9264 23.03488-19.456 23.03488-35.20256 0-21.20704-17.19296-38.4-38.4-38.4-21.20704 0-38.4 17.19296-38.4 38.4 0 15.74656 9.47968 29.28128 23.04256 35.20512L291.84 414.72h-7.68c-21.20704 0-38.4 17.19296-38.4 38.4v99.84c0 21.20704 17.19296 38.4 38.4 38.4h7.68c0 38.17472 30.94528 69.12 69.12 69.12l290.1376 0.00768c-8.89856 15.37536-23.99232 27.6992-45.27872 36.9664-17.26976 7.52128-34.86464 13.12256-52.78208 16.8064L460.8 714.24a15.36 15.36 0 0 0-15.36 15.36v38.4a15.36 15.36 0 0 0 15.36 15.36h92.16a15.36 15.36 0 0 0 15.36-15.36v-19.86048l3.25632 2.13504c32.04096-7.4496 59.5456-19.20768 82.51392-35.26912 34.45248-24.0896 57.21344-50.36288 63.99232-66.90816 4.14464-10.112 5.56288-26.84416 4.25984-50.2016L721.92 591.36v-0.768c2.48064 0.50432 5.04832 0.768 7.68 0.768h7.68c21.20704 0 38.4-17.19296 38.4-38.4v-99.84c0-21.20704-17.19296-38.4-38.4-38.4h-7.68c-2.63168 0-5.19936 0.26368-7.68 0.768l0.00512-103.80544c13.55776-5.9264 23.03488-19.456 23.03488-35.20256 0-21.20704-17.19296-38.4-38.4-38.4z m-84.48 176.64l1.84832 0.03072C652.76416 415.72352 675.84 439.40864 675.84 468.48v30.72l-0.03072 1.84832C674.83648 529.88416 651.15136 552.96 622.08 552.96h-230.4l-1.84832-0.03072C360.99584 551.95648 337.92 528.27136 337.92 499.2v-30.72l0.03072-1.84832C338.92352 437.79584 362.60864 414.72 391.68 414.72h230.4z m-188.16 30.72c-19.08736 0-34.56 15.47264-34.56 34.56s15.47264 34.56 34.56 34.56 34.56-15.47264 34.56-34.56-15.47264-34.56-34.56-34.56z m152.832 0c-19.08736 0-34.56 15.47264-34.56 34.56s15.47264 34.56 34.56 34.56 34.56-15.47264 34.56-34.56-15.47264-34.56-34.56-34.56z" fill="#58ADF0" p-id="5198"></path></svg>